solid Exported from Blender-3.0.0
facet normal 0.000000 0.000000 1.000000
outer loop
vertex 2.000000 0.000000 2.000000
vertex 0.000000 1.000000 2.000000
vertex 0.000000 -1.000000 2.000000
endloop
endfacet
facet normal 0.408248 -0.816497 -0.408248
outer loop
vertex 0.000000 0.000000 0.000000
vertex 2.000000 0.000000 2.000000
vertex 0.000000 -1.000000 2.000000
endloop
endfacet
facet normal -1.000000 0.000000 0.000000
outer loop
vertex 0.000000 0.000000 0.000000
vertex 0.000000 -1.000000 2.000000
vertex 0.000000 1.000000 2.000000
endloop
endfacet
facet normal 0.408248 0.816497 -0.408248
outer loop
vertex 0.000000 0.000000 0.000000
vertex 0.000000 1.000000 2.000000
vertex 2.000000 0.000000 2.000000
endloop
endfacet
endsolid Exported from Blender-3.0.0
