solid Exported from Blender-2.92.0
facet normal 0.000000 -0.687235 -0.726436
outer loop
vertex 0.500000 0.500000 -0.473018
vertex 1.000000 0.000000 0.000000
vertex 0.000000 0.000000 0.000000
endloop
endfacet
facet normal -0.687235 0.000000 -0.726436
outer loop
vertex 0.500000 0.500000 -0.473018
vertex 0.000000 0.000000 0.000000
vertex 0.000000 1.000000 0.000000
endloop
endfacet
facet normal 0.687235 0.000000 -0.726436
outer loop
vertex 1.000000 0.000000 0.000000
vertex 0.500000 0.500000 -0.473018
vertex 1.000000 1.000000 0.000000
endloop
endfacet
facet normal 0.000000 0.687235 -0.726436
outer loop
vertex 1.000000 1.000000 0.000000
vertex 0.500000 0.500000 -0.473018
vertex 0.000000 1.000000 0.000000
endloop
endfacet
facet normal 0.000000 -0.687235 -0.726436
outer loop
vertex 3.500000 0.500000 -0.473018
vertex 3.000000 0.000000 0.000000
vertex 2.500000 0.500000 -0.473018
endloop
endfacet
facet normal 0.000000 -0.687235 -0.726436
outer loop
vertex 2.500000 0.500000 -0.473018
vertex 2.000000 0.000000 0.000000
vertex 1.500000 0.500000 -0.473018
endloop
endfacet
facet normal 0.687235 0.000000 -0.726436
outer loop
vertex 1.500000 1.500000 -0.473018
vertex 2.000000 1.000000 0.000000
vertex 1.500000 0.500000 -0.473018
endloop
endfacet
facet normal 0.687235 0.000000 -0.726436
outer loop
vertex 2.500000 1.500000 -0.473018
vertex 3.000000 1.000000 0.000000
vertex 2.500000 0.500000 -0.473018
endloop
endfacet
facet normal 0.000000 -0.687235 -0.726435
outer loop
vertex 1.500000 0.500000 -0.473018
vertex 2.000000 0.000000 0.000000
vertex 1.000000 0.000000 0.000000
endloop
endfacet
facet normal -0.687235 0.000000 -0.726436
outer loop
vertex 1.500000 0.500000 -0.473018
vertex 1.000000 0.000000 0.000000
vertex 1.000000 1.000000 0.000000
endloop
endfacet
facet normal 0.687235 0.000000 -0.726436
outer loop
vertex 2.000000 0.000000 0.000000
vertex 1.500000 0.500000 -0.473018
vertex 2.000000 1.000000 0.000000
endloop
endfacet
facet normal 0.000000 0.687235 -0.726435
outer loop
vertex 2.000000 1.000000 0.000000
vertex 1.500000 0.500000 -0.473018
vertex 1.000000 1.000000 0.000000
endloop
endfacet
facet normal 0.000000 0.687235 -0.726436
outer loop
vertex 2.000000 1.000000 0.000000
vertex 2.500000 0.500000 -0.473018
vertex 1.500000 0.500000 -0.473018
endloop
endfacet
facet normal 0.000000 0.687235 -0.726436
outer loop
vertex 3.000000 1.000000 0.000000
vertex 3.500000 0.500000 -0.473018
vertex 2.500000 0.500000 -0.473018
endloop
endfacet
facet normal -0.687235 0.000000 -0.726436
outer loop
vertex 1.000000 1.000000 0.000000
vertex 1.500000 1.500000 -0.473018
vertex 1.500000 0.500000 -0.473018
endloop
endfacet
facet normal -0.687235 0.000000 -0.726436
outer loop
vertex 2.000000 1.000000 0.000000
vertex 2.500000 1.500000 -0.473018
vertex 2.500000 0.500000 -0.473018
endloop
endfacet
facet normal 0.000000 -0.687235 -0.726435
outer loop
vertex 2.500000 0.500000 -0.473018
vertex 3.000000 0.000000 0.000000
vertex 2.000000 0.000000 0.000000
endloop
endfacet
facet normal -0.687235 0.000000 -0.726436
outer loop
vertex 2.500000 0.500000 -0.473018
vertex 2.000000 0.000000 0.000000
vertex 2.000000 1.000000 0.000000
endloop
endfacet
facet normal 0.687235 0.000000 -0.726436
outer loop
vertex 3.000000 0.000000 0.000000
vertex 2.500000 0.500000 -0.473018
vertex 3.000000 1.000000 0.000000
endloop
endfacet
facet normal 0.000000 0.687235 -0.726435
outer loop
vertex 3.000000 1.000000 0.000000
vertex 2.500000 0.500000 -0.473018
vertex 2.000000 1.000000 0.000000
endloop
endfacet
facet normal 0.000000 -0.687235 -0.726435
outer loop
vertex 4.500000 0.500000 -0.473018
vertex 4.000000 0.000000 0.000000
vertex 3.500000 0.500000 -0.473018
endloop
endfacet
facet normal 0.687235 0.000000 -0.726436
outer loop
vertex 4.500000 1.500000 -0.473018
vertex 5.000000 1.000000 0.000000
vertex 4.500000 0.500000 -0.473018
endloop
endfacet
facet normal 0.687235 0.000000 -0.726436
outer loop
vertex 3.500000 1.500000 -0.473018
vertex 4.000000 1.000000 0.000000
vertex 3.500000 0.500000 -0.473018
endloop
endfacet
facet normal 0.000000 -0.687235 -0.726435
outer loop
vertex 3.500000 0.500000 -0.473018
vertex 4.000000 0.000000 0.000000
vertex 3.000000 0.000000 0.000000
endloop
endfacet
facet normal -0.687235 0.000000 -0.726436
outer loop
vertex 3.500000 0.500000 -0.473018
vertex 3.000000 0.000000 0.000000
vertex 3.000000 1.000000 0.000000
endloop
endfacet
facet normal 0.687235 0.000000 -0.726436
outer loop
vertex 4.000000 0.000000 0.000000
vertex 3.500000 0.500000 -0.473018
vertex 4.000000 1.000000 0.000000
endloop
endfacet
facet normal 0.000000 0.687235 -0.726435
outer loop
vertex 4.000000 1.000000 0.000000
vertex 3.500000 0.500000 -0.473018
vertex 3.000000 1.000000 0.000000
endloop
endfacet
facet normal 0.000000 0.687235 -0.726435
outer loop
vertex 4.000000 1.000000 0.000000
vertex 4.500000 0.500000 -0.473018
vertex 3.500000 0.500000 -0.473018
endloop
endfacet
facet normal -0.687235 0.000000 -0.726436
outer loop
vertex 3.000000 1.000000 0.000000
vertex 3.500000 1.500000 -0.473018
vertex 3.500000 0.500000 -0.473018
endloop
endfacet
facet normal -0.687235 0.000000 -0.726436
outer loop
vertex 4.000000 1.000000 0.000000
vertex 4.500000 1.500000 -0.473018
vertex 4.500000 0.500000 -0.473018
endloop
endfacet
facet normal 0.000000 -0.687235 -0.726436
outer loop
vertex 4.500000 0.500000 -0.473018
vertex 5.000000 0.000000 0.000000
vertex 4.000000 0.000000 0.000000
endloop
endfacet
facet normal -0.687235 0.000000 -0.726436
outer loop
vertex 4.500000 0.500000 -0.473018
vertex 4.000000 0.000000 0.000000
vertex 4.000000 1.000000 0.000000
endloop
endfacet
facet normal 0.687235 0.000000 -0.726436
outer loop
vertex 5.000000 0.000000 0.000000
vertex 4.500000 0.500000 -0.473018
vertex 5.000000 1.000000 0.000000
endloop
endfacet
facet normal 0.000000 0.687235 -0.726436
outer loop
vertex 5.000000 1.000000 0.000000
vertex 4.500000 0.500000 -0.473018
vertex 4.000000 1.000000 0.000000
endloop
endfacet
facet normal 0.000000 -0.687235 -0.726436
outer loop
vertex 1.500000 1.500000 -0.473018
vertex 1.000000 1.000000 0.000000
vertex 0.500000 1.500000 -0.473018
endloop
endfacet
facet normal 0.000000 0.687235 -0.726436
outer loop
vertex 1.000000 2.000000 0.000000
vertex 1.500000 1.500000 -0.473018
vertex 0.500000 1.500000 -0.473018
endloop
endfacet
facet normal -0.687235 0.000000 -0.726436
outer loop
vertex 0.000000 1.000000 0.000000
vertex 0.500000 1.500000 -0.473018
vertex 0.500000 0.500000 -0.473018
endloop
endfacet
facet normal 0.687235 0.000000 -0.726436
outer loop
vertex 0.500000 1.500000 -0.473018
vertex 1.000000 1.000000 0.000000
vertex 0.500000 0.500000 -0.473018
endloop
endfacet
facet normal 0.000000 -0.687235 -0.726436
outer loop
vertex 1.500000 0.500000 -0.473018
vertex 1.000000 0.000000 0.000000
vertex 0.500000 0.500000 -0.473018
endloop
endfacet
facet normal 0.000000 -0.687235 -0.726436
outer loop
vertex 0.500000 1.500000 -0.473018
vertex 1.000000 1.000000 0.000000
vertex 0.000000 1.000000 0.000000
endloop
endfacet
facet normal -0.687235 0.000000 -0.726436
outer loop
vertex 0.500000 1.500000 -0.473018
vertex 0.000000 1.000000 0.000000
vertex 0.000000 2.000000 0.000000
endloop
endfacet
facet normal 0.687235 0.000000 -0.726436
outer loop
vertex 1.000000 1.000000 0.000000
vertex 0.500000 1.500000 -0.473018
vertex 1.000000 2.000000 0.000000
endloop
endfacet
facet normal 0.000000 0.687235 -0.726436
outer loop
vertex 1.000000 2.000000 0.000000
vertex 0.500000 1.500000 -0.473018
vertex 0.000000 2.000000 0.000000
endloop
endfacet
facet normal 0.000000 0.687235 -0.726436
outer loop
vertex 3.000000 2.000000 0.000000
vertex 3.500000 1.500000 -0.473018
vertex 2.500000 1.500000 -0.473018
endloop
endfacet
facet normal 0.000000 -0.687235 -0.726436
outer loop
vertex 2.500000 1.500000 -0.473018
vertex 2.000000 1.000000 0.000000
vertex 1.500000 1.500000 -0.473018
endloop
endfacet
facet normal 0.687235 0.000000 -0.726436
outer loop
vertex 1.500000 2.500000 -0.473018
vertex 2.000000 2.000000 0.000000
vertex 1.500000 1.500000 -0.473018
endloop
endfacet
facet normal -0.687235 0.000000 -0.726436
outer loop
vertex 1.000000 2.000000 0.000000
vertex 1.500000 2.500000 -0.473018
vertex 1.500000 1.500000 -0.473018
endloop
endfacet
facet normal 0.000000 -0.687235 -0.726435
outer loop
vertex 1.500000 1.500000 -0.473018
vertex 2.000000 1.000000 0.000000
vertex 1.000000 1.000000 0.000000
endloop
endfacet
facet normal -0.687235 0.000000 -0.726436
outer loop
vertex 1.500000 1.500000 -0.473018
vertex 1.000000 1.000000 0.000000
vertex 1.000000 2.000000 0.000000
endloop
endfacet
facet normal 0.687235 0.000000 -0.726436
outer loop
vertex 2.000000 1.000000 0.000000
vertex 1.500000 1.500000 -0.473018
vertex 2.000000 2.000000 0.000000
endloop
endfacet
facet normal 0.000000 0.687235 -0.726435
outer loop
vertex 2.000000 2.000000 0.000000
vertex 1.500000 1.500000 -0.473018
vertex 1.000000 2.000000 0.000000
endloop
endfacet
facet normal 0.000000 0.687235 -0.726436
outer loop
vertex 2.000000 2.000000 0.000000
vertex 2.500000 1.500000 -0.473018
vertex 1.500000 1.500000 -0.473018
endloop
endfacet
facet normal 0.000000 -0.687235 -0.726436
outer loop
vertex 3.500000 1.500000 -0.473018
vertex 3.000000 1.000000 0.000000
vertex 2.500000 1.500000 -0.473018
endloop
endfacet
facet normal -0.687235 0.000000 -0.726436
outer loop
vertex 3.000000 2.000000 0.000000
vertex 3.500000 2.500000 -0.473018
vertex 3.500000 1.500000 -0.473018
endloop
endfacet
facet normal 0.687235 0.000000 -0.726436
outer loop
vertex 2.500000 2.500000 -0.473018
vertex 3.000000 2.000000 0.000000
vertex 2.500000 1.500000 -0.473018
endloop
endfacet
facet normal 0.000000 -0.687235 -0.726435
outer loop
vertex 2.500000 1.500000 -0.473018
vertex 3.000000 1.000000 0.000000
vertex 2.000000 1.000000 0.000000
endloop
endfacet
facet normal -0.687235 0.000000 -0.726436
outer loop
vertex 2.500000 1.500000 -0.473018
vertex 2.000000 1.000000 0.000000
vertex 2.000000 2.000000 0.000000
endloop
endfacet
facet normal 0.687235 0.000000 -0.726436
outer loop
vertex 3.000000 1.000000 0.000000
vertex 2.500000 1.500000 -0.473018
vertex 3.000000 2.000000 0.000000
endloop
endfacet
facet normal 0.000000 0.687235 -0.726435
outer loop
vertex 3.000000 2.000000 0.000000
vertex 2.500000 1.500000 -0.473018
vertex 2.000000 2.000000 0.000000
endloop
endfacet
facet normal 0.000000 -0.687235 -0.726435
outer loop
vertex 4.500000 1.500000 -0.473018
vertex 4.000000 1.000000 0.000000
vertex 3.500000 1.500000 -0.473018
endloop
endfacet
facet normal -0.687235 0.000000 -0.726436
outer loop
vertex 2.000000 2.000000 0.000000
vertex 2.500000 2.500000 -0.473018
vertex 2.500000 1.500000 -0.473018
endloop
endfacet
facet normal 0.687235 0.000000 -0.726436
outer loop
vertex 3.500000 2.500000 -0.473018
vertex 4.000000 2.000000 0.000000
vertex 3.500000 1.500000 -0.473018
endloop
endfacet
facet normal 0.000000 -0.687235 -0.726435
outer loop
vertex 3.500000 1.500000 -0.473018
vertex 4.000000 1.000000 0.000000
vertex 3.000000 1.000000 0.000000
endloop
endfacet
facet normal -0.687235 0.000000 -0.726436
outer loop
vertex 3.500000 1.500000 -0.473018
vertex 3.000000 1.000000 0.000000
vertex 3.000000 2.000000 0.000000
endloop
endfacet
facet normal 0.687235 0.000000 -0.726436
outer loop
vertex 4.000000 1.000000 0.000000
vertex 3.500000 1.500000 -0.473018
vertex 4.000000 2.000000 0.000000
endloop
endfacet
facet normal 0.000000 0.687235 -0.726435
outer loop
vertex 4.000000 2.000000 0.000000
vertex 3.500000 1.500000 -0.473018
vertex 3.000000 2.000000 0.000000
endloop
endfacet
facet normal 0.000000 0.687235 -0.726435
outer loop
vertex 4.000000 2.000000 0.000000
vertex 4.500000 1.500000 -0.473018
vertex 3.500000 1.500000 -0.473018
endloop
endfacet
facet normal 0.687235 0.000000 -0.726436
outer loop
vertex 4.500000 2.500000 -0.473018
vertex 5.000000 2.000000 0.000000
vertex 4.500000 1.500000 -0.473018
endloop
endfacet
facet normal 0.000000 -0.687235 -0.726436
outer loop
vertex 4.500000 1.500000 -0.473018
vertex 5.000000 1.000000 0.000000
vertex 4.000000 1.000000 0.000000
endloop
endfacet
facet normal -0.687235 0.000000 -0.726436
outer loop
vertex 4.500000 1.500000 -0.473018
vertex 4.000000 1.000000 0.000000
vertex 4.000000 2.000000 0.000000
endloop
endfacet
facet normal 0.687235 0.000000 -0.726436
outer loop
vertex 5.000000 1.000000 0.000000
vertex 4.500000 1.500000 -0.473018
vertex 5.000000 2.000000 0.000000
endloop
endfacet
facet normal 0.000000 0.687235 -0.726436
outer loop
vertex 5.000000 2.000000 0.000000
vertex 4.500000 1.500000 -0.473018
vertex 4.000000 2.000000 0.000000
endloop
endfacet
facet normal -0.687235 0.000000 -0.726436
outer loop
vertex 4.000000 2.000000 0.000000
vertex 4.500000 2.500000 -0.473018
vertex 4.500000 1.500000 -0.473018
endloop
endfacet
facet normal 0.000000 -0.687235 -0.726436
outer loop
vertex 1.500000 2.500000 -0.473018
vertex 1.000000 2.000000 0.000000
vertex 0.500000 2.500000 -0.473018
endloop
endfacet
facet normal -0.687235 0.000000 -0.726436
outer loop
vertex 0.000000 3.000000 0.000000
vertex 0.500000 3.500000 -0.473018
vertex 0.500000 2.500000 -0.473018
endloop
endfacet
facet normal 0.687235 0.000000 -0.726436
outer loop
vertex 0.500000 3.500000 -0.473018
vertex 1.000000 3.000000 0.000000
vertex 0.500000 2.500000 -0.473018
endloop
endfacet
facet normal 0.000000 -0.687235 -0.726436
outer loop
vertex 0.500000 2.500000 -0.473018
vertex 1.000000 2.000000 0.000000
vertex 0.000000 2.000000 0.000000
endloop
endfacet
facet normal -0.687235 0.000000 -0.726436
outer loop
vertex 0.500000 2.500000 -0.473018
vertex 0.000000 2.000000 0.000000
vertex 0.000000 3.000000 0.000000
endloop
endfacet
facet normal 0.687235 0.000000 -0.726436
outer loop
vertex 1.000000 2.000000 0.000000
vertex 0.500000 2.500000 -0.473018
vertex 1.000000 3.000000 0.000000
endloop
endfacet
facet normal 0.000000 0.687235 -0.726436
outer loop
vertex 1.000000 3.000000 0.000000
vertex 0.500000 2.500000 -0.473018
vertex 0.000000 3.000000 0.000000
endloop
endfacet
facet normal 0.000000 0.687235 -0.726436
outer loop
vertex 1.000000 3.000000 0.000000
vertex 1.500000 2.500000 -0.473018
vertex 0.500000 2.500000 -0.473018
endloop
endfacet
facet normal 0.000000 -0.687235 -0.726436
outer loop
vertex 2.500000 2.500000 -0.473018
vertex 2.000000 2.000000 0.000000
vertex 1.500000 2.500000 -0.473018
endloop
endfacet
facet normal -0.687235 0.000000 -0.726436
outer loop
vertex 2.000000 3.000000 0.000000
vertex 2.500000 3.500000 -0.473018
vertex 2.500000 2.500000 -0.473018
endloop
endfacet
facet normal 0.687235 0.000000 -0.726436
outer loop
vertex 1.500000 3.500000 -0.473018
vertex 2.000000 3.000000 0.000000
vertex 1.500000 2.500000 -0.473018
endloop
endfacet
facet normal 0.000000 -0.687235 -0.726435
outer loop
vertex 1.500000 2.500000 -0.473018
vertex 2.000000 2.000000 0.000000
vertex 1.000000 2.000000 0.000000
endloop
endfacet
facet normal -0.687235 0.000000 -0.726436
outer loop
vertex 1.500000 2.500000 -0.473018
vertex 1.000000 2.000000 0.000000
vertex 1.000000 3.000000 0.000000
endloop
endfacet
facet normal 0.687235 0.000000 -0.726436
outer loop
vertex 2.000000 2.000000 0.000000
vertex 1.500000 2.500000 -0.473018
vertex 2.000000 3.000000 0.000000
endloop
endfacet
facet normal 0.000000 0.687235 -0.726435
outer loop
vertex 2.000000 3.000000 0.000000
vertex 1.500000 2.500000 -0.473018
vertex 1.000000 3.000000 0.000000
endloop
endfacet
facet normal 0.000000 0.687235 -0.726436
outer loop
vertex 2.000000 3.000000 0.000000
vertex 2.500000 2.500000 -0.473018
vertex 1.500000 2.500000 -0.473018
endloop
endfacet
facet normal 0.000000 -0.687235 -0.726436
outer loop
vertex 3.500000 2.500000 -0.473018
vertex 3.000000 2.000000 0.000000
vertex 2.500000 2.500000 -0.473018
endloop
endfacet
facet normal -0.687235 0.000000 -0.726436
outer loop
vertex 1.000000 3.000000 0.000000
vertex 1.500000 3.500000 -0.473018
vertex 1.500000 2.500000 -0.473018
endloop
endfacet
facet normal 0.687235 0.000000 -0.726436
outer loop
vertex 3.500000 3.500000 -0.473018
vertex 4.000000 3.000000 0.000000
vertex 3.500000 2.500000 -0.473018
endloop
endfacet
facet normal 0.000000 -0.687235 -0.726435
outer loop
vertex 2.500000 2.500000 -0.473018
vertex 3.000000 2.000000 0.000000
vertex 2.000000 2.000000 0.000000
endloop
endfacet
facet normal -0.687235 0.000000 -0.726436
outer loop
vertex 2.500000 2.500000 -0.473018
vertex 2.000000 2.000000 0.000000
vertex 2.000000 3.000000 0.000000
endloop
endfacet
facet normal 0.687235 0.000000 -0.726436
outer loop
vertex 3.000000 2.000000 0.000000
vertex 2.500000 2.500000 -0.473018
vertex 3.000000 3.000000 0.000000
endloop
endfacet
facet normal 0.000000 0.687235 -0.726435
outer loop
vertex 3.000000 3.000000 0.000000
vertex 2.500000 2.500000 -0.473018
vertex 2.000000 3.000000 0.000000
endloop
endfacet
facet normal 0.000000 0.687235 -0.726436
outer loop
vertex 3.000000 3.000000 0.000000
vertex 3.500000 2.500000 -0.473018
vertex 2.500000 2.500000 -0.473018
endloop
endfacet
facet normal 0.000000 -0.687235 -0.726435
outer loop
vertex 4.500000 2.500000 -0.473018
vertex 4.000000 2.000000 0.000000
vertex 3.500000 2.500000 -0.473018
endloop
endfacet
facet normal 0.687235 0.000000 -0.726436
outer loop
vertex 3.500000 4.500000 -0.473018
vertex 4.000000 4.000000 0.000000
vertex 3.500000 3.500000 -0.473018
endloop
endfacet
facet normal 0.687235 0.000000 -0.726436
outer loop
vertex 2.500000 3.500000 -0.473018
vertex 3.000000 3.000000 0.000000
vertex 2.500000 2.500000 -0.473018
endloop
endfacet
facet normal 0.000000 -0.687235 -0.726435
outer loop
vertex 3.500000 2.500000 -0.473018
vertex 4.000000 2.000000 0.000000
vertex 3.000000 2.000000 0.000000
endloop
endfacet
facet normal -0.687235 0.000000 -0.726436
outer loop
vertex 3.500000 2.500000 -0.473018
vertex 3.000000 2.000000 0.000000
vertex 3.000000 3.000000 0.000000
endloop
endfacet
facet normal 0.687235 0.000000 -0.726436
outer loop
vertex 4.000000 2.000000 0.000000
vertex 3.500000 2.500000 -0.473018
vertex 4.000000 3.000000 0.000000
endloop
endfacet
facet normal 0.000000 0.687235 -0.726435
outer loop
vertex 4.000000 3.000000 0.000000
vertex 3.500000 2.500000 -0.473018
vertex 3.000000 3.000000 0.000000
endloop
endfacet
facet normal 0.000000 0.687235 -0.726435
outer loop
vertex 4.000000 3.000000 0.000000
vertex 4.500000 2.500000 -0.473018
vertex 3.500000 2.500000 -0.473018
endloop
endfacet
facet normal -0.687235 0.000000 -0.726436
outer loop
vertex 3.000000 3.000000 0.000000
vertex 3.500000 3.500000 -0.473018
vertex 3.500000 2.500000 -0.473018
endloop
endfacet
facet normal 0.687235 0.000000 -0.726436
outer loop
vertex 4.500000 3.500000 -0.473018
vertex 5.000000 3.000000 0.000000
vertex 4.500000 2.500000 -0.473018
endloop
endfacet
facet normal 0.000000 -0.687235 -0.726436
outer loop
vertex 4.500000 2.500000 -0.473018
vertex 5.000000 2.000000 0.000000
vertex 4.000000 2.000000 0.000000
endloop
endfacet
facet normal -0.687235 0.000000 -0.726436
outer loop
vertex 4.500000 2.500000 -0.473018
vertex 4.000000 2.000000 0.000000
vertex 4.000000 3.000000 0.000000
endloop
endfacet
facet normal 0.687235 0.000000 -0.726436
outer loop
vertex 5.000000 2.000000 0.000000
vertex 4.500000 2.500000 -0.473018
vertex 5.000000 3.000000 0.000000
endloop
endfacet
facet normal 0.000000 0.687235 -0.726436
outer loop
vertex 5.000000 3.000000 0.000000
vertex 4.500000 2.500000 -0.473018
vertex 4.000000 3.000000 0.000000
endloop
endfacet
facet normal -0.687235 0.000000 -0.726436
outer loop
vertex 4.000000 3.000000 0.000000
vertex 4.500000 3.500000 -0.473018
vertex 4.500000 2.500000 -0.473018
endloop
endfacet
facet normal 0.000000 -0.687235 -0.726436
outer loop
vertex 1.500000 3.500000 -0.473018
vertex 1.000000 3.000000 0.000000
vertex 0.500000 3.500000 -0.473018
endloop
endfacet
facet normal 0.000000 0.687235 -0.726436
outer loop
vertex 1.000000 4.000000 0.000000
vertex 1.500000 3.500000 -0.473018
vertex 0.500000 3.500000 -0.473018
endloop
endfacet
facet normal 0.687235 0.000000 -0.726436
outer loop
vertex 0.500000 4.500000 -0.473018
vertex 1.000000 4.000000 0.000000
vertex 0.500000 3.500000 -0.473018
endloop
endfacet
facet normal 0.000000 -0.687235 -0.726436
outer loop
vertex 0.500000 3.500000 -0.473018
vertex 1.000000 3.000000 0.000000
vertex 0.000000 3.000000 0.000000
endloop
endfacet
facet normal -0.687235 0.000000 -0.726436
outer loop
vertex 0.500000 3.500000 -0.473018
vertex 0.000000 3.000000 0.000000
vertex 0.000000 4.000000 0.000000
endloop
endfacet
facet normal 0.687235 0.000000 -0.726436
outer loop
vertex 1.000000 3.000000 0.000000
vertex 0.500000 3.500000 -0.473018
vertex 1.000000 4.000000 0.000000
endloop
endfacet
facet normal 0.000000 0.687235 -0.726436
outer loop
vertex 1.000000 4.000000 0.000000
vertex 0.500000 3.500000 -0.473018
vertex 0.000000 4.000000 0.000000
endloop
endfacet
facet normal 0.000000 -0.687235 -0.726436
outer loop
vertex 3.500000 3.500000 -0.473018
vertex 3.000000 3.000000 0.000000
vertex 2.500000 3.500000 -0.473018
endloop
endfacet
facet normal 0.000000 -0.687235 -0.726436
outer loop
vertex 2.500000 3.500000 -0.473018
vertex 2.000000 3.000000 0.000000
vertex 1.500000 3.500000 -0.473018
endloop
endfacet
facet normal -0.687235 0.000000 -0.726436
outer loop
vertex 0.000000 4.000000 0.000000
vertex 0.500000 4.500000 -0.473018
vertex 0.500000 3.500000 -0.473018
endloop
endfacet
facet normal 0.687235 0.000000 -0.726436
outer loop
vertex 1.500000 4.500000 -0.473018
vertex 2.000000 4.000000 0.000000
vertex 1.500000 3.500000 -0.473018
endloop
endfacet
facet normal 0.000000 -0.687235 -0.726435
outer loop
vertex 1.500000 3.500000 -0.473018
vertex 2.000000 3.000000 0.000000
vertex 1.000000 3.000000 0.000000
endloop
endfacet
facet normal -0.687235 0.000000 -0.726436
outer loop
vertex 1.500000 3.500000 -0.473018
vertex 1.000000 3.000000 0.000000
vertex 1.000000 4.000000 0.000000
endloop
endfacet
facet normal 0.687235 0.000000 -0.726436
outer loop
vertex 2.000000 3.000000 0.000000
vertex 1.500000 3.500000 -0.473018
vertex 2.000000 4.000000 0.000000
endloop
endfacet
facet normal 0.000000 0.687235 -0.726435
outer loop
vertex 2.000000 4.000000 0.000000
vertex 1.500000 3.500000 -0.473018
vertex 1.000000 4.000000 0.000000
endloop
endfacet
facet normal 0.000000 0.687235 -0.726436
outer loop
vertex 2.000000 4.000000 0.000000
vertex 2.500000 3.500000 -0.473018
vertex 1.500000 3.500000 -0.473018
endloop
endfacet
facet normal 0.000000 0.687235 -0.726436
outer loop
vertex 3.000000 4.000000 0.000000
vertex 3.500000 3.500000 -0.473018
vertex 2.500000 3.500000 -0.473018
endloop
endfacet
facet normal 0.687235 0.000000 -0.726436
outer loop
vertex 2.500000 4.500000 -0.473018
vertex 3.000000 4.000000 0.000000
vertex 2.500000 3.500000 -0.473018
endloop
endfacet
facet normal -0.687235 0.000000 -0.726436
outer loop
vertex 3.000000 5.000000 0.000000
vertex 3.500000 5.500000 -0.473018
vertex 3.500000 4.500000 -0.473018
endloop
endfacet
facet normal 0.000000 -0.687235 -0.726435
outer loop
vertex 2.500000 3.500000 -0.473018
vertex 3.000000 3.000000 0.000000
vertex 2.000000 3.000000 0.000000
endloop
endfacet
facet normal -0.687235 0.000000 -0.726436
outer loop
vertex 2.500000 3.500000 -0.473018
vertex 2.000000 3.000000 0.000000
vertex 2.000000 4.000000 0.000000
endloop
endfacet
facet normal 0.687235 0.000000 -0.726436
outer loop
vertex 3.000000 3.000000 0.000000
vertex 2.500000 3.500000 -0.473018
vertex 3.000000 4.000000 0.000000
endloop
endfacet
facet normal 0.000000 0.687235 -0.726435
outer loop
vertex 3.000000 4.000000 0.000000
vertex 2.500000 3.500000 -0.473018
vertex 2.000000 4.000000 0.000000
endloop
endfacet
facet normal 0.000000 -0.687235 -0.726435
outer loop
vertex 4.500000 3.500000 -0.473018
vertex 4.000000 3.000000 0.000000
vertex 3.500000 3.500000 -0.473018
endloop
endfacet
facet normal 0.000000 0.687235 -0.726435
outer loop
vertex 4.000000 4.000000 0.000000
vertex 4.500000 3.500000 -0.473018
vertex 3.500000 3.500000 -0.473018
endloop
endfacet
facet normal -0.687235 0.000000 -0.726436
outer loop
vertex 2.000000 4.000000 0.000000
vertex 2.500000 4.500000 -0.473018
vertex 2.500000 3.500000 -0.473018
endloop
endfacet
facet normal -0.687235 0.000000 -0.726436
outer loop
vertex 3.000000 4.000000 0.000000
vertex 3.500000 4.500000 -0.473018
vertex 3.500000 3.500000 -0.473018
endloop
endfacet
facet normal 0.000000 -0.687235 -0.726435
outer loop
vertex 3.500000 3.500000 -0.473018
vertex 4.000000 3.000000 0.000000
vertex 3.000000 3.000000 0.000000
endloop
endfacet
facet normal -0.687235 0.000000 -0.726436
outer loop
vertex 3.500000 3.500000 -0.473018
vertex 3.000000 3.000000 0.000000
vertex 3.000000 4.000000 0.000000
endloop
endfacet
facet normal 0.687235 0.000000 -0.726436
outer loop
vertex 4.000000 3.000000 0.000000
vertex 3.500000 3.500000 -0.473018
vertex 4.000000 4.000000 0.000000
endloop
endfacet
facet normal 0.000000 0.687235 -0.726435
outer loop
vertex 4.000000 4.000000 0.000000
vertex 3.500000 3.500000 -0.473018
vertex 3.000000 4.000000 0.000000
endloop
endfacet
facet normal 0.687235 0.000000 -0.726436
outer loop
vertex 4.500000 4.500000 -0.473018
vertex 5.000000 4.000000 0.000000
vertex 4.500000 3.500000 -0.473018
endloop
endfacet
facet normal 0.000000 -0.687235 -0.726436
outer loop
vertex 4.500000 3.500000 -0.473018
vertex 5.000000 3.000000 0.000000
vertex 4.000000 3.000000 0.000000
endloop
endfacet
facet normal -0.687235 0.000000 -0.726436
outer loop
vertex 4.500000 3.500000 -0.473018
vertex 4.000000 3.000000 0.000000
vertex 4.000000 4.000000 0.000000
endloop
endfacet
facet normal 0.687235 0.000000 -0.726436
outer loop
vertex 5.000000 3.000000 0.000000
vertex 4.500000 3.500000 -0.473018
vertex 5.000000 4.000000 0.000000
endloop
endfacet
facet normal 0.000000 0.687235 -0.726436
outer loop
vertex 5.000000 4.000000 0.000000
vertex 4.500000 3.500000 -0.473018
vertex 4.000000 4.000000 0.000000
endloop
endfacet
facet normal -0.687235 0.000000 -0.726436
outer loop
vertex 4.000000 4.000000 0.000000
vertex 4.500000 4.500000 -0.473018
vertex 4.500000 3.500000 -0.473018
endloop
endfacet
facet normal -0.687235 0.000000 -0.726436
outer loop
vertex 0.000000 5.000000 0.000000
vertex 0.500000 5.500000 -0.473018
vertex 0.500000 4.500000 -0.473018
endloop
endfacet
facet normal 0.000000 0.687235 -0.726436
outer loop
vertex 1.000000 5.000000 0.000000
vertex 1.500000 4.500000 -0.473018
vertex 0.500000 4.500000 -0.473018
endloop
endfacet
facet normal 0.000000 -0.687235 -0.726436
outer loop
vertex 1.500000 4.500000 -0.473018
vertex 1.000000 4.000000 0.000000
vertex 0.500000 4.500000 -0.473018
endloop
endfacet
facet normal 0.687235 0.000000 -0.726436
outer loop
vertex 0.500000 5.500000 -0.473018
vertex 1.000000 5.000000 0.000000
vertex 0.500000 4.500000 -0.473018
endloop
endfacet
facet normal -0.687235 0.000000 -0.726436
outer loop
vertex 1.000000 4.000000 0.000000
vertex 1.500000 4.500000 -0.473018
vertex 1.500000 3.500000 -0.473018
endloop
endfacet
facet normal 0.000000 -0.687235 -0.726436
outer loop
vertex 0.500000 4.500000 -0.473018
vertex 1.000000 4.000000 0.000000
vertex 0.000000 4.000000 0.000000
endloop
endfacet
facet normal -0.687235 0.000000 -0.726436
outer loop
vertex 0.500000 4.500000 -0.473018
vertex 0.000000 4.000000 0.000000
vertex 0.000000 5.000000 0.000000
endloop
endfacet
facet normal 0.687235 0.000000 -0.726436
outer loop
vertex 1.000000 4.000000 0.000000
vertex 0.500000 4.500000 -0.473018
vertex 1.000000 5.000000 0.000000
endloop
endfacet
facet normal 0.000000 0.687235 -0.726436
outer loop
vertex 1.000000 5.000000 0.000000
vertex 0.500000 4.500000 -0.473018
vertex 0.000000 5.000000 0.000000
endloop
endfacet
facet normal 0.000000 -0.687235 -0.726436
outer loop
vertex 2.500000 4.500000 -0.473018
vertex 2.000000 4.000000 0.000000
vertex 1.500000 4.500000 -0.473018
endloop
endfacet
facet normal 0.000000 0.687235 -0.726436
outer loop
vertex 2.000000 5.000000 0.000000
vertex 2.500000 4.500000 -0.473018
vertex 1.500000 4.500000 -0.473018
endloop
endfacet
facet normal 0.687235 0.000000 -0.726436
outer loop
vertex 1.500000 5.500000 -0.473018
vertex 2.000000 5.000000 0.000000
vertex 1.500000 4.500000 -0.473018
endloop
endfacet
facet normal -0.687235 0.000000 -0.726436
outer loop
vertex 1.000000 5.000000 0.000000
vertex 1.500000 5.500000 -0.473018
vertex 1.500000 4.500000 -0.473018
endloop
endfacet
facet normal 0.000000 -0.687235 -0.726435
outer loop
vertex 1.500000 4.500000 -0.473018
vertex 2.000000 4.000000 0.000000
vertex 1.000000 4.000000 0.000000
endloop
endfacet
facet normal -0.687235 0.000000 -0.726436
outer loop
vertex 1.500000 4.500000 -0.473018
vertex 1.000000 4.000000 0.000000
vertex 1.000000 5.000000 0.000000
endloop
endfacet
facet normal 0.687235 0.000000 -0.726436
outer loop
vertex 2.000000 4.000000 0.000000
vertex 1.500000 4.500000 -0.473018
vertex 2.000000 5.000000 0.000000
endloop
endfacet
facet normal 0.000000 0.687235 -0.726435
outer loop
vertex 2.000000 5.000000 0.000000
vertex 1.500000 4.500000 -0.473018
vertex 1.000000 5.000000 0.000000
endloop
endfacet
facet normal 0.000000 -0.687235 -0.726436
outer loop
vertex 3.500000 4.500000 -0.473018
vertex 3.000000 4.000000 0.000000
vertex 2.500000 4.500000 -0.473018
endloop
endfacet
facet normal 0.687235 0.000000 -0.726436
outer loop
vertex 2.500000 5.500000 -0.473018
vertex 3.000000 5.000000 0.000000
vertex 2.500000 4.500000 -0.473018
endloop
endfacet
facet normal -0.687235 0.000000 -0.726436
outer loop
vertex 2.000000 6.000000 0.000000
vertex 2.500000 6.500000 -0.473018
vertex 2.500000 5.500000 -0.473018
endloop
endfacet
facet normal 0.000000 -0.687235 -0.726435
outer loop
vertex 2.500000 4.500000 -0.473018
vertex 3.000000 4.000000 0.000000
vertex 2.000000 4.000000 0.000000
endloop
endfacet
facet normal -0.687235 0.000000 -0.726436
outer loop
vertex 2.500000 4.500000 -0.473018
vertex 2.000000 4.000000 0.000000
vertex 2.000000 5.000000 0.000000
endloop
endfacet
facet normal 0.687235 0.000000 -0.726436
outer loop
vertex 3.000000 4.000000 0.000000
vertex 2.500000 4.500000 -0.473018
vertex 3.000000 5.000000 0.000000
endloop
endfacet
facet normal 0.000000 0.687235 -0.726435
outer loop
vertex 3.000000 5.000000 0.000000
vertex 2.500000 4.500000 -0.473018
vertex 2.000000 5.000000 0.000000
endloop
endfacet
facet normal 0.000000 0.687235 -0.726436
outer loop
vertex 3.000000 5.000000 0.000000
vertex 3.500000 4.500000 -0.473018
vertex 2.500000 4.500000 -0.473018
endloop
endfacet
facet normal 0.000000 -0.687235 -0.726435
outer loop
vertex 4.500000 4.500000 -0.473018
vertex 4.000000 4.000000 0.000000
vertex 3.500000 4.500000 -0.473018
endloop
endfacet
facet normal -0.687235 0.000000 -0.726436
outer loop
vertex 2.000000 5.000000 0.000000
vertex 2.500000 5.500000 -0.473018
vertex 2.500000 4.500000 -0.473018
endloop
endfacet
facet normal 0.687235 0.000000 -0.726436
outer loop
vertex 3.500000 5.500000 -0.473018
vertex 4.000000 5.000000 0.000000
vertex 3.500000 4.500000 -0.473018
endloop
endfacet
facet normal 0.000000 -0.687235 -0.726435
outer loop
vertex 3.500000 4.500000 -0.473018
vertex 4.000000 4.000000 0.000000
vertex 3.000000 4.000000 0.000000
endloop
endfacet
facet normal -0.687235 0.000000 -0.726436
outer loop
vertex 3.500000 4.500000 -0.473018
vertex 3.000000 4.000000 0.000000
vertex 3.000000 5.000000 0.000000
endloop
endfacet
facet normal 0.687235 0.000000 -0.726436
outer loop
vertex 4.000000 4.000000 0.000000
vertex 3.500000 4.500000 -0.473018
vertex 4.000000 5.000000 0.000000
endloop
endfacet
facet normal 0.000000 0.687235 -0.726435
outer loop
vertex 4.000000 5.000000 0.000000
vertex 3.500000 4.500000 -0.473018
vertex 3.000000 5.000000 0.000000
endloop
endfacet
facet normal 0.000000 0.687235 -0.726435
outer loop
vertex 4.000000 5.000000 0.000000
vertex 4.500000 4.500000 -0.473018
vertex 3.500000 4.500000 -0.473018
endloop
endfacet
facet normal 0.687235 0.000000 -0.726436
outer loop
vertex 4.500000 5.500000 -0.473018
vertex 5.000000 5.000000 0.000000
vertex 4.500000 4.500000 -0.473018
endloop
endfacet
facet normal 0.000000 -0.687235 -0.726436
outer loop
vertex 4.500000 4.500000 -0.473018
vertex 5.000000 4.000000 0.000000
vertex 4.000000 4.000000 0.000000
endloop
endfacet
facet normal -0.687235 0.000000 -0.726436
outer loop
vertex 4.500000 4.500000 -0.473018
vertex 4.000000 4.000000 0.000000
vertex 4.000000 5.000000 0.000000
endloop
endfacet
facet normal 0.687235 0.000000 -0.726436
outer loop
vertex 5.000000 4.000000 0.000000
vertex 4.500000 4.500000 -0.473018
vertex 5.000000 5.000000 0.000000
endloop
endfacet
facet normal 0.000000 0.687235 -0.726436
outer loop
vertex 5.000000 5.000000 0.000000
vertex 4.500000 4.500000 -0.473018
vertex 4.000000 5.000000 0.000000
endloop
endfacet
facet normal -0.687235 0.000000 -0.726436
outer loop
vertex 4.000000 5.000000 0.000000
vertex 4.500000 5.500000 -0.473018
vertex 4.500000 4.500000 -0.473018
endloop
endfacet
facet normal 0.000000 -0.687235 -0.726435
outer loop
vertex 4.500000 5.500000 -0.473018
vertex 4.000000 5.000000 0.000000
vertex 3.500000 5.500000 -0.473018
endloop
endfacet
facet normal 0.000000 -0.687235 -0.726436
outer loop
vertex 1.500000 5.500000 -0.473018
vertex 1.000000 5.000000 0.000000
vertex 0.500000 5.500000 -0.473018
endloop
endfacet
facet normal 0.687235 0.000000 -0.726436
outer loop
vertex 0.500000 7.500000 -0.473018
vertex 1.000000 7.000000 0.000000
vertex 0.500000 6.500000 -0.473018
endloop
endfacet
facet normal 0.687235 0.000000 -0.726436
outer loop
vertex 0.500000 6.500000 -0.473018
vertex 1.000000 6.000000 0.000000
vertex 0.500000 5.500000 -0.473018
endloop
endfacet
facet normal 0.000000 -0.687235 -0.726436
outer loop
vertex 0.500000 5.500000 -0.473018
vertex 1.000000 5.000000 0.000000
vertex 0.000000 5.000000 0.000000
endloop
endfacet
facet normal -0.687235 0.000000 -0.726436
outer loop
vertex 0.500000 5.500000 -0.473018
vertex 0.000000 5.000000 0.000000
vertex 0.000000 6.000000 0.000000
endloop
endfacet
facet normal 0.687235 0.000000 -0.726436
outer loop
vertex 1.000000 5.000000 0.000000
vertex 0.500000 5.500000 -0.473018
vertex 1.000000 6.000000 0.000000
endloop
endfacet
facet normal 0.000000 0.687235 -0.726436
outer loop
vertex 1.000000 6.000000 0.000000
vertex 0.500000 5.500000 -0.473018
vertex 0.000000 6.000000 0.000000
endloop
endfacet
facet normal 0.000000 0.687235 -0.726436
outer loop
vertex 1.000000 6.000000 0.000000
vertex 1.500000 5.500000 -0.473018
vertex 0.500000 5.500000 -0.473018
endloop
endfacet
facet normal 0.000000 -0.687235 -0.726436
outer loop
vertex 2.500000 5.500000 -0.473018
vertex 2.000000 5.000000 0.000000
vertex 1.500000 5.500000 -0.473018
endloop
endfacet
facet normal -0.687235 0.000000 -0.726436
outer loop
vertex 0.000000 6.000000 0.000000
vertex 0.500000 6.500000 -0.473018
vertex 0.500000 5.500000 -0.473018
endloop
endfacet
facet normal 0.687235 0.000000 -0.726436
outer loop
vertex 1.500000 6.500000 -0.473018
vertex 2.000000 6.000000 0.000000
vertex 1.500000 5.500000 -0.473018
endloop
endfacet
facet normal 0.000000 -0.687235 -0.726435
outer loop
vertex 1.500000 5.500000 -0.473018
vertex 2.000000 5.000000 0.000000
vertex 1.000000 5.000000 0.000000
endloop
endfacet
facet normal -0.687235 0.000000 -0.726436
outer loop
vertex 1.500000 5.500000 -0.473018
vertex 1.000000 5.000000 0.000000
vertex 1.000000 6.000000 0.000000
endloop
endfacet
facet normal 0.687235 0.000000 -0.726436
outer loop
vertex 2.000000 5.000000 0.000000
vertex 1.500000 5.500000 -0.473018
vertex 2.000000 6.000000 0.000000
endloop
endfacet
facet normal 0.000000 0.687235 -0.726435
outer loop
vertex 2.000000 6.000000 0.000000
vertex 1.500000 5.500000 -0.473018
vertex 1.000000 6.000000 0.000000
endloop
endfacet
facet normal 0.000000 0.687235 -0.726436
outer loop
vertex 2.000000 6.000000 0.000000
vertex 2.500000 5.500000 -0.473018
vertex 1.500000 5.500000 -0.473018
endloop
endfacet
facet normal 0.000000 -0.687235 -0.726436
outer loop
vertex 3.500000 5.500000 -0.473018
vertex 3.000000 5.000000 0.000000
vertex 2.500000 5.500000 -0.473018
endloop
endfacet
facet normal 0.687235 0.000000 -0.726436
outer loop
vertex 2.500000 6.500000 -0.473018
vertex 3.000000 6.000000 0.000000
vertex 2.500000 5.500000 -0.473018
endloop
endfacet
facet normal 0.000000 -0.687235 -0.726435
outer loop
vertex 2.500000 5.500000 -0.473018
vertex 3.000000 5.000000 0.000000
vertex 2.000000 5.000000 0.000000
endloop
endfacet
facet normal -0.687235 0.000000 -0.726436
outer loop
vertex 2.500000 5.500000 -0.473018
vertex 2.000000 5.000000 0.000000
vertex 2.000000 6.000000 0.000000
endloop
endfacet
facet normal 0.687235 0.000000 -0.726436
outer loop
vertex 3.000000 5.000000 0.000000
vertex 2.500000 5.500000 -0.473018
vertex 3.000000 6.000000 0.000000
endloop
endfacet
facet normal 0.000000 0.687235 -0.726435
outer loop
vertex 3.000000 6.000000 0.000000
vertex 2.500000 5.500000 -0.473018
vertex 2.000000 6.000000 0.000000
endloop
endfacet
facet normal 0.000000 0.687235 -0.726436
outer loop
vertex 3.000000 6.000000 0.000000
vertex 3.500000 5.500000 -0.473018
vertex 2.500000 5.500000 -0.473018
endloop
endfacet
facet normal 0.000000 0.687235 -0.726435
outer loop
vertex 4.000000 6.000000 0.000000
vertex 4.500000 5.500000 -0.473018
vertex 3.500000 5.500000 -0.473018
endloop
endfacet
facet normal 0.687235 0.000000 -0.726436
outer loop
vertex 3.500000 6.500000 -0.473018
vertex 4.000000 6.000000 0.000000
vertex 3.500000 5.500000 -0.473018
endloop
endfacet
facet normal 0.000000 -0.687235 -0.726435
outer loop
vertex 3.500000 5.500000 -0.473018
vertex 4.000000 5.000000 0.000000
vertex 3.000000 5.000000 0.000000
endloop
endfacet
facet normal -0.687235 0.000000 -0.726436
outer loop
vertex 3.500000 5.500000 -0.473018
vertex 3.000000 5.000000 0.000000
vertex 3.000000 6.000000 0.000000
endloop
endfacet
facet normal 0.687235 0.000000 -0.726436
outer loop
vertex 4.000000 5.000000 0.000000
vertex 3.500000 5.500000 -0.473018
vertex 4.000000 6.000000 0.000000
endloop
endfacet
facet normal 0.000000 0.687235 -0.726435
outer loop
vertex 4.000000 6.000000 0.000000
vertex 3.500000 5.500000 -0.473018
vertex 3.000000 6.000000 0.000000
endloop
endfacet
facet normal 0.000000 0.687235 -0.726436
outer loop
vertex 1.000000 7.000000 0.000000
vertex 1.500000 6.500000 -0.473018
vertex 0.500000 6.500000 -0.473018
endloop
endfacet
facet normal -0.687235 0.000000 -0.726436
outer loop
vertex 3.000000 6.000000 0.000000
vertex 3.500000 6.500000 -0.473018
vertex 3.500000 5.500000 -0.473018
endloop
endfacet
facet normal 0.687235 0.000000 -0.726436
outer loop
vertex 4.500000 6.500000 -0.473018
vertex 5.000000 6.000000 0.000000
vertex 4.500000 5.500000 -0.473018
endloop
endfacet
facet normal 0.000000 -0.687235 -0.726436
outer loop
vertex 4.500000 5.500000 -0.473018
vertex 5.000000 5.000000 0.000000
vertex 4.000000 5.000000 0.000000
endloop
endfacet
facet normal -0.687235 0.000000 -0.726436
outer loop
vertex 4.500000 5.500000 -0.473018
vertex 4.000000 5.000000 0.000000
vertex 4.000000 6.000000 0.000000
endloop
endfacet
facet normal 0.687235 0.000000 -0.726436
outer loop
vertex 5.000000 5.000000 0.000000
vertex 4.500000 5.500000 -0.473018
vertex 5.000000 6.000000 0.000000
endloop
endfacet
facet normal 0.000000 0.687235 -0.726436
outer loop
vertex 5.000000 6.000000 0.000000
vertex 4.500000 5.500000 -0.473018
vertex 4.000000 6.000000 0.000000
endloop
endfacet
facet normal -0.687235 0.000000 -0.726436
outer loop
vertex 4.000000 6.000000 0.000000
vertex 4.500000 6.500000 -0.473018
vertex 4.500000 5.500000 -0.473018
endloop
endfacet
facet normal 0.000000 -0.687235 -0.726436
outer loop
vertex 1.500000 6.500000 -0.473018
vertex 1.000000 6.000000 0.000000
vertex 0.500000 6.500000 -0.473018
endloop
endfacet
facet normal 0.687235 0.000000 -0.726436
outer loop
vertex 1.500000 7.500000 -0.473018
vertex 2.000000 7.000000 0.000000
vertex 1.500000 6.500000 -0.473018
endloop
endfacet
facet normal 0.000000 -0.687235 -0.726436
outer loop
vertex 0.500000 6.500000 -0.473018
vertex 1.000000 6.000000 0.000000
vertex 0.000000 6.000000 0.000000
endloop
endfacet
facet normal -0.687235 0.000000 -0.726436
outer loop
vertex 0.500000 6.500000 -0.473018
vertex 0.000000 6.000000 0.000000
vertex 0.000000 7.000000 0.000000
endloop
endfacet
facet normal 0.687235 0.000000 -0.726436
outer loop
vertex 1.000000 6.000000 0.000000
vertex 0.500000 6.500000 -0.473018
vertex 1.000000 7.000000 0.000000
endloop
endfacet
facet normal 0.000000 0.687235 -0.726436
outer loop
vertex 1.000000 7.000000 0.000000
vertex 0.500000 6.500000 -0.473018
vertex 0.000000 7.000000 0.000000
endloop
endfacet
facet normal 0.000000 -0.687235 -0.726436
outer loop
vertex 2.500000 6.500000 -0.473018
vertex 2.000000 6.000000 0.000000
vertex 1.500000 6.500000 -0.473018
endloop
endfacet
facet normal 0.000000 0.687235 -0.726435
outer loop
vertex 4.000000 7.000000 0.000000
vertex 4.500000 6.500000 -0.473018
vertex 3.500000 6.500000 -0.473018
endloop
endfacet
facet normal -0.687235 0.000000 -0.726436
outer loop
vertex 0.000000 7.000000 0.000000
vertex 0.500000 7.500000 -0.473018
vertex 0.500000 6.500000 -0.473018
endloop
endfacet
facet normal -0.687235 0.000000 -0.726436
outer loop
vertex 1.000000 6.000000 0.000000
vertex 1.500000 6.500000 -0.473018
vertex 1.500000 5.500000 -0.473018
endloop
endfacet
facet normal 0.000000 -0.687235 -0.726435
outer loop
vertex 1.500000 6.500000 -0.473018
vertex 2.000000 6.000000 0.000000
vertex 1.000000 6.000000 0.000000
endloop
endfacet
facet normal -0.687235 0.000000 -0.726436
outer loop
vertex 1.500000 6.500000 -0.473018
vertex 1.000000 6.000000 0.000000
vertex 1.000000 7.000000 0.000000
endloop
endfacet
facet normal 0.687235 0.000000 -0.726436
outer loop
vertex 2.000000 6.000000 0.000000
vertex 1.500000 6.500000 -0.473018
vertex 2.000000 7.000000 0.000000
endloop
endfacet
facet normal 0.000000 0.687235 -0.726435
outer loop
vertex 2.000000 7.000000 0.000000
vertex 1.500000 6.500000 -0.473018
vertex 1.000000 7.000000 0.000000
endloop
endfacet
facet normal 0.000000 0.687235 -0.726436
outer loop
vertex 2.000000 7.000000 0.000000
vertex 2.500000 6.500000 -0.473018
vertex 1.500000 6.500000 -0.473018
endloop
endfacet
facet normal 0.000000 -0.687235 -0.726436
outer loop
vertex 3.500000 6.500000 -0.473018
vertex 3.000000 6.000000 0.000000
vertex 2.500000 6.500000 -0.473018
endloop
endfacet
facet normal -0.687235 0.000000 -0.726436
outer loop
vertex 1.000000 7.000000 0.000000
vertex 1.500000 7.500000 -0.473018
vertex 1.500000 6.500000 -0.473018
endloop
endfacet
facet normal 0.687235 0.000000 -0.726436
outer loop
vertex 3.500000 7.500000 -0.473018
vertex 4.000000 7.000000 0.000000
vertex 3.500000 6.500000 -0.473018
endloop
endfacet
facet normal 0.000000 -0.687235 -0.726435
outer loop
vertex 2.500000 6.500000 -0.473018
vertex 3.000000 6.000000 0.000000
vertex 2.000000 6.000000 0.000000
endloop
endfacet
facet normal -0.687235 0.000000 -0.726436
outer loop
vertex 2.500000 6.500000 -0.473018
vertex 2.000000 6.000000 0.000000
vertex 2.000000 7.000000 0.000000
endloop
endfacet
facet normal 0.687235 0.000000 -0.726436
outer loop
vertex 3.000000 6.000000 0.000000
vertex 2.500000 6.500000 -0.473018
vertex 3.000000 7.000000 0.000000
endloop
endfacet
facet normal 0.000000 0.687235 -0.726435
outer loop
vertex 3.000000 7.000000 0.000000
vertex 2.500000 6.500000 -0.473018
vertex 2.000000 7.000000 0.000000
endloop
endfacet
facet normal 0.000000 0.687235 -0.726436
outer loop
vertex 3.000000 7.000000 0.000000
vertex 3.500000 6.500000 -0.473018
vertex 2.500000 6.500000 -0.473018
endloop
endfacet
facet normal 0.000000 -0.687235 -0.726435
outer loop
vertex 4.500000 6.500000 -0.473018
vertex 4.000000 6.000000 0.000000
vertex 3.500000 6.500000 -0.473018
endloop
endfacet
facet normal 0.687235 0.000000 -0.726436
outer loop
vertex 2.500000 7.500000 -0.473018
vertex 3.000000 7.000000 0.000000
vertex 2.500000 6.500000 -0.473018
endloop
endfacet
facet normal 0.000000 -0.687235 -0.726435
outer loop
vertex 3.500000 6.500000 -0.473018
vertex 4.000000 6.000000 0.000000
vertex 3.000000 6.000000 0.000000
endloop
endfacet
facet normal -0.687235 0.000000 -0.726436
outer loop
vertex 3.500000 6.500000 -0.473018
vertex 3.000000 6.000000 0.000000
vertex 3.000000 7.000000 0.000000
endloop
endfacet
facet normal 0.687235 0.000000 -0.726436
outer loop
vertex 4.000000 6.000000 0.000000
vertex 3.500000 6.500000 -0.473018
vertex 4.000000 7.000000 0.000000
endloop
endfacet
facet normal 0.000000 0.687235 -0.726435
outer loop
vertex 4.000000 7.000000 0.000000
vertex 3.500000 6.500000 -0.473018
vertex 3.000000 7.000000 0.000000
endloop
endfacet
facet normal -0.687235 0.000000 -0.726436
outer loop
vertex 3.000000 7.000000 0.000000
vertex 3.500000 7.500000 -0.473018
vertex 3.500000 6.500000 -0.473018
endloop
endfacet
facet normal 0.687235 0.000000 -0.726436
outer loop
vertex 4.500000 7.500000 -0.473018
vertex 5.000000 7.000000 0.000000
vertex 4.500000 6.500000 -0.473018
endloop
endfacet
facet normal 0.000000 -0.687235 -0.726436
outer loop
vertex 4.500000 6.500000 -0.473018
vertex 5.000000 6.000000 0.000000
vertex 4.000000 6.000000 0.000000
endloop
endfacet
facet normal -0.687235 0.000000 -0.726436
outer loop
vertex 4.500000 6.500000 -0.473018
vertex 4.000000 6.000000 0.000000
vertex 4.000000 7.000000 0.000000
endloop
endfacet
facet normal 0.687235 0.000000 -0.726436
outer loop
vertex 5.000000 6.000000 0.000000
vertex 4.500000 6.500000 -0.473018
vertex 5.000000 7.000000 0.000000
endloop
endfacet
facet normal 0.000000 0.687235 -0.726436
outer loop
vertex 5.000000 7.000000 0.000000
vertex 4.500000 6.500000 -0.473018
vertex 4.000000 7.000000 0.000000
endloop
endfacet
facet normal -0.687235 0.000000 -0.726436
outer loop
vertex 4.000000 7.000000 0.000000
vertex 4.500000 7.500000 -0.473018
vertex 4.500000 6.500000 -0.473018
endloop
endfacet
facet normal 0.000000 -0.687235 -0.726436
outer loop
vertex 3.500000 7.500000 -0.473018
vertex 3.000000 7.000000 0.000000
vertex 2.500000 7.500000 -0.473018
endloop
endfacet
facet normal -0.687235 0.000000 -0.726436
outer loop
vertex 2.000000 7.000000 0.000000
vertex 2.500000 7.500000 -0.473018
vertex 2.500000 6.500000 -0.473018
endloop
endfacet
facet normal 0.000000 -0.687235 -0.726436
outer loop
vertex 1.500000 7.500000 -0.473018
vertex 1.000000 7.000000 0.000000
vertex 0.500000 7.500000 -0.473018
endloop
endfacet
facet normal 0.687235 0.000000 -0.726436
outer loop
vertex 1.500000 8.500000 -0.473018
vertex 2.000000 8.000000 0.000000
vertex 1.500000 7.500000 -0.473018
endloop
endfacet
facet normal 0.687235 0.000000 -0.726436
outer loop
vertex 0.500000 8.500000 -0.473018
vertex 1.000000 8.000000 0.000000
vertex 0.500000 7.500000 -0.473018
endloop
endfacet
facet normal 0.000000 -0.687235 -0.726436
outer loop
vertex 0.500000 7.500000 -0.473018
vertex 1.000000 7.000000 0.000000
vertex 0.000000 7.000000 0.000000
endloop
endfacet
facet normal -0.687235 0.000000 -0.726436
outer loop
vertex 0.500000 7.500000 -0.473018
vertex 0.000000 7.000000 0.000000
vertex 0.000000 8.000000 0.000000
endloop
endfacet
facet normal 0.687235 0.000000 -0.726436
outer loop
vertex 1.000000 7.000000 0.000000
vertex 0.500000 7.500000 -0.473018
vertex 1.000000 8.000000 0.000000
endloop
endfacet
facet normal 0.000000 0.687235 -0.726436
outer loop
vertex 1.000000 8.000000 0.000000
vertex 0.500000 7.500000 -0.473018
vertex 0.000000 8.000000 0.000000
endloop
endfacet
facet normal 0.000000 0.687235 -0.726436
outer loop
vertex 1.000000 8.000000 0.000000
vertex 1.500000 7.500000 -0.473018
vertex 0.500000 7.500000 -0.473018
endloop
endfacet
facet normal 0.000000 0.687235 -0.726436
outer loop
vertex 2.000000 8.000000 0.000000
vertex 2.500000 7.500000 -0.473018
vertex 1.500000 7.500000 -0.473018
endloop
endfacet
facet normal -0.687235 0.000000 -0.726436
outer loop
vertex 0.000000 8.000000 0.000000
vertex 0.500000 8.500000 -0.473018
vertex 0.500000 7.500000 -0.473018
endloop
endfacet
facet normal -0.687235 0.000000 -0.726436
outer loop
vertex 1.000000 8.000000 0.000000
vertex 1.500000 8.500000 -0.473018
vertex 1.500000 7.500000 -0.473018
endloop
endfacet
facet normal 0.000000 -0.687235 -0.726435
outer loop
vertex 1.500000 7.500000 -0.473018
vertex 2.000000 7.000000 0.000000
vertex 1.000000 7.000000 0.000000
endloop
endfacet
facet normal -0.687235 0.000000 -0.726436
outer loop
vertex 1.500000 7.500000 -0.473018
vertex 1.000000 7.000000 0.000000
vertex 1.000000 8.000000 0.000000
endloop
endfacet
facet normal 0.687235 0.000000 -0.726436
outer loop
vertex 2.000000 7.000000 0.000000
vertex 1.500000 7.500000 -0.473018
vertex 2.000000 8.000000 0.000000
endloop
endfacet
facet normal 0.000000 0.687235 -0.726435
outer loop
vertex 2.000000 8.000000 0.000000
vertex 1.500000 7.500000 -0.473018
vertex 1.000000 8.000000 0.000000
endloop
endfacet
facet normal 0.000000 -0.687235 -0.726436
outer loop
vertex 1.500000 8.500000 -0.473018
vertex 1.000000 8.000000 0.000000
vertex 0.500000 8.500000 -0.473018
endloop
endfacet
facet normal 0.000000 0.687235 -0.726436
outer loop
vertex 3.000000 8.000000 0.000000
vertex 3.500000 7.500000 -0.473018
vertex 2.500000 7.500000 -0.473018
endloop
endfacet
facet normal -0.687235 0.000000 -0.726436
outer loop
vertex 3.000000 8.000000 0.000000
vertex 3.500000 8.500000 -0.473018
vertex 3.500000 7.500000 -0.473018
endloop
endfacet
facet normal 0.687235 0.000000 -0.726436
outer loop
vertex 2.500000 8.500000 -0.473018
vertex 3.000000 8.000000 0.000000
vertex 2.500000 7.500000 -0.473018
endloop
endfacet
facet normal 0.000000 -0.687235 -0.726435
outer loop
vertex 2.500000 7.500000 -0.473018
vertex 3.000000 7.000000 0.000000
vertex 2.000000 7.000000 0.000000
endloop
endfacet
facet normal -0.687235 0.000000 -0.726436
outer loop
vertex 2.500000 7.500000 -0.473018
vertex 2.000000 7.000000 0.000000
vertex 2.000000 8.000000 0.000000
endloop
endfacet
facet normal 0.687235 0.000000 -0.726436
outer loop
vertex 3.000000 7.000000 0.000000
vertex 2.500000 7.500000 -0.473018
vertex 3.000000 8.000000 0.000000
endloop
endfacet
facet normal 0.000000 0.687235 -0.726435
outer loop
vertex 3.000000 8.000000 0.000000
vertex 2.500000 7.500000 -0.473018
vertex 2.000000 8.000000 0.000000
endloop
endfacet
facet normal 0.000000 -0.687235 -0.726436
outer loop
vertex 2.500000 7.500000 -0.473018
vertex 2.000000 7.000000 0.000000
vertex 1.500000 7.500000 -0.473018
endloop
endfacet
facet normal 0.000000 -0.687235 -0.726435
outer loop
vertex 4.500000 7.500000 -0.473018
vertex 4.000000 7.000000 0.000000
vertex 3.500000 7.500000 -0.473018
endloop
endfacet
facet normal -0.687235 0.000000 -0.726436
outer loop
vertex 2.000000 8.000000 0.000000
vertex 2.500000 8.500000 -0.473018
vertex 2.500000 7.500000 -0.473018
endloop
endfacet
facet normal 0.687235 0.000000 -0.726436
outer loop
vertex 4.500000 8.500000 -0.473018
vertex 5.000000 8.000000 0.000000
vertex 4.500000 7.500000 -0.473018
endloop
endfacet
facet normal 0.000000 -0.687235 -0.726435
outer loop
vertex 3.500000 7.500000 -0.473018
vertex 4.000000 7.000000 0.000000
vertex 3.000000 7.000000 0.000000
endloop
endfacet
facet normal -0.687235 0.000000 -0.726436
outer loop
vertex 3.500000 7.500000 -0.473018
vertex 3.000000 7.000000 0.000000
vertex 3.000000 8.000000 0.000000
endloop
endfacet
facet normal 0.687235 0.000000 -0.726436
outer loop
vertex 4.000000 7.000000 0.000000
vertex 3.500000 7.500000 -0.473018
vertex 4.000000 8.000000 0.000000
endloop
endfacet
facet normal 0.000000 0.687235 -0.726435
outer loop
vertex 4.000000 8.000000 0.000000
vertex 3.500000 7.500000 -0.473018
vertex 3.000000 8.000000 0.000000
endloop
endfacet
facet normal 0.000000 0.687235 -0.726435
outer loop
vertex 4.000000 8.000000 0.000000
vertex 4.500000 7.500000 -0.473018
vertex 3.500000 7.500000 -0.473018
endloop
endfacet
facet normal 0.687235 0.000000 -0.726436
outer loop
vertex 3.500000 8.500000 -0.473018
vertex 4.000000 8.000000 0.000000
vertex 3.500000 7.500000 -0.473018
endloop
endfacet
facet normal 0.000000 -0.687235 -0.726436
outer loop
vertex 4.500000 7.500000 -0.473018
vertex 5.000000 7.000000 0.000000
vertex 4.000000 7.000000 0.000000
endloop
endfacet
facet normal -0.687235 0.000000 -0.726436
outer loop
vertex 4.500000 7.500000 -0.473018
vertex 4.000000 7.000000 0.000000
vertex 4.000000 8.000000 0.000000
endloop
endfacet
facet normal 0.687235 0.000000 -0.726436
outer loop
vertex 5.000000 7.000000 0.000000
vertex 4.500000 7.500000 -0.473018
vertex 5.000000 8.000000 0.000000
endloop
endfacet
facet normal 0.000000 0.687235 -0.726436
outer loop
vertex 5.000000 8.000000 0.000000
vertex 4.500000 7.500000 -0.473018
vertex 4.000000 8.000000 0.000000
endloop
endfacet
facet normal -0.687235 0.000000 -0.726436
outer loop
vertex 4.000000 8.000000 0.000000
vertex 4.500000 8.500000 -0.473018
vertex 4.500000 7.500000 -0.473018
endloop
endfacet
facet normal 0.000000 -0.687235 -0.726436
outer loop
vertex 2.500000 8.500000 -0.473018
vertex 2.000000 8.000000 0.000000
vertex 1.500000 8.500000 -0.473018
endloop
endfacet
facet normal 0.687235 0.000000 -0.726436
outer loop
vertex 0.500000 9.500000 -0.473018
vertex 1.000000 9.000000 0.000000
vertex 0.500000 8.500000 -0.473018
endloop
endfacet
facet normal -0.687235 0.000000 -0.726436
outer loop
vertex 0.000000 9.000000 0.000000
vertex 0.500000 9.500000 -0.473018
vertex 0.500000 8.500000 -0.473018
endloop
endfacet
facet normal 0.000000 -0.687235 -0.726436
outer loop
vertex 0.500000 8.500000 -0.473018
vertex 1.000000 8.000000 0.000000
vertex 0.000000 8.000000 0.000000
endloop
endfacet
facet normal -0.687235 0.000000 -0.726436
outer loop
vertex 0.500000 8.500000 -0.473018
vertex 0.000000 8.000000 0.000000
vertex 0.000000 9.000000 0.000000
endloop
endfacet
facet normal 0.687235 0.000000 -0.726436
outer loop
vertex 1.000000 8.000000 0.000000
vertex 0.500000 8.500000 -0.473018
vertex 1.000000 9.000000 0.000000
endloop
endfacet
facet normal 0.000000 0.687235 -0.726436
outer loop
vertex 1.000000 9.000000 0.000000
vertex 0.500000 8.500000 -0.473018
vertex 0.000000 9.000000 0.000000
endloop
endfacet
facet normal 0.000000 0.687235 -0.726436
outer loop
vertex 1.000000 9.000000 0.000000
vertex 1.500000 8.500000 -0.473018
vertex 0.500000 8.500000 -0.473018
endloop
endfacet
facet normal 0.000000 0.687235 -0.726436
outer loop
vertex 3.000000 9.000000 0.000000
vertex 3.500000 8.500000 -0.473018
vertex 2.500000 8.500000 -0.473018
endloop
endfacet
facet normal 0.687235 0.000000 -0.726436
outer loop
vertex 1.500000 9.500000 -0.473018
vertex 2.000000 9.000000 0.000000
vertex 1.500000 8.500000 -0.473018
endloop
endfacet
facet normal 0.687235 0.000000 -0.726436
outer loop
vertex 3.500000 9.500000 -0.473018
vertex 4.000000 9.000000 0.000000
vertex 3.500000 8.500000 -0.473018
endloop
endfacet
facet normal 0.000000 -0.687235 -0.726435
outer loop
vertex 1.500000 8.500000 -0.473018
vertex 2.000000 8.000000 0.000000
vertex 1.000000 8.000000 0.000000
endloop
endfacet
facet normal -0.687235 0.000000 -0.726436
outer loop
vertex 1.500000 8.500000 -0.473018
vertex 1.000000 8.000000 0.000000
vertex 1.000000 9.000000 0.000000
endloop
endfacet
facet normal 0.687235 0.000000 -0.726436
outer loop
vertex 2.000000 8.000000 0.000000
vertex 1.500000 8.500000 -0.473018
vertex 2.000000 9.000000 0.000000
endloop
endfacet
facet normal 0.000000 0.687235 -0.726435
outer loop
vertex 2.000000 9.000000 0.000000
vertex 1.500000 8.500000 -0.473018
vertex 1.000000 9.000000 0.000000
endloop
endfacet
facet normal 0.000000 -0.687235 -0.726436
outer loop
vertex 3.500000 8.500000 -0.473018
vertex 3.000000 8.000000 0.000000
vertex 2.500000 8.500000 -0.473018
endloop
endfacet
facet normal 0.000000 -0.687235 -0.726435
outer loop
vertex 4.500000 8.500000 -0.473018
vertex 4.000000 8.000000 0.000000
vertex 3.500000 8.500000 -0.473018
endloop
endfacet
facet normal -0.687235 0.000000 -0.726436
outer loop
vertex 1.000000 9.000000 0.000000
vertex 1.500000 9.500000 -0.473018
vertex 1.500000 8.500000 -0.473018
endloop
endfacet
facet normal 0.687235 0.000000 -0.726436
outer loop
vertex 2.500000 9.500000 -0.473018
vertex 3.000000 9.000000 0.000000
vertex 2.500000 8.500000 -0.473018
endloop
endfacet
facet normal 0.000000 -0.687235 -0.726435
outer loop
vertex 2.500000 8.500000 -0.473018
vertex 3.000000 8.000000 0.000000
vertex 2.000000 8.000000 0.000000
endloop
endfacet
facet normal -0.687235 0.000000 -0.726436
outer loop
vertex 2.500000 8.500000 -0.473018
vertex 2.000000 8.000000 0.000000
vertex 2.000000 9.000000 0.000000
endloop
endfacet
facet normal 0.687235 0.000000 -0.726436
outer loop
vertex 3.000000 8.000000 0.000000
vertex 2.500000 8.500000 -0.473018
vertex 3.000000 9.000000 0.000000
endloop
endfacet
facet normal 0.000000 0.687235 -0.726435
outer loop
vertex 3.000000 9.000000 0.000000
vertex 2.500000 8.500000 -0.473018
vertex 2.000000 9.000000 0.000000
endloop
endfacet
facet normal 0.000000 0.687235 -0.726435
outer loop
vertex 4.000000 9.000000 0.000000
vertex 4.500000 8.500000 -0.473018
vertex 3.500000 8.500000 -0.473018
endloop
endfacet
facet normal 0.000000 0.687235 -0.726436
outer loop
vertex 2.000000 9.000000 0.000000
vertex 2.500000 8.500000 -0.473018
vertex 1.500000 8.500000 -0.473018
endloop
endfacet
facet normal -0.687235 0.000000 -0.726436
outer loop
vertex 2.000000 9.000000 0.000000
vertex 2.500000 9.500000 -0.473018
vertex 2.500000 8.500000 -0.473018
endloop
endfacet
facet normal -0.687235 0.000000 -0.726436
outer loop
vertex 3.000000 9.000000 0.000000
vertex 3.500000 9.500000 -0.473018
vertex 3.500000 8.500000 -0.473018
endloop
endfacet
facet normal 0.000000 -0.687235 -0.726435
outer loop
vertex 3.500000 8.500000 -0.473018
vertex 4.000000 8.000000 0.000000
vertex 3.000000 8.000000 0.000000
endloop
endfacet
facet normal -0.687235 0.000000 -0.726436
outer loop
vertex 3.500000 8.500000 -0.473018
vertex 3.000000 8.000000 0.000000
vertex 3.000000 9.000000 0.000000
endloop
endfacet
facet normal 0.687235 0.000000 -0.726436
outer loop
vertex 4.000000 8.000000 0.000000
vertex 3.500000 8.500000 -0.473018
vertex 4.000000 9.000000 0.000000
endloop
endfacet
facet normal 0.000000 0.687235 -0.726435
outer loop
vertex 4.000000 9.000000 0.000000
vertex 3.500000 8.500000 -0.473018
vertex 3.000000 9.000000 0.000000
endloop
endfacet
facet normal 0.687235 0.000000 -0.726436
outer loop
vertex 4.500000 9.500000 -0.473018
vertex 5.000000 9.000000 0.000000
vertex 4.500000 8.500000 -0.473018
endloop
endfacet
facet normal 0.000000 -0.687235 -0.726436
outer loop
vertex 4.500000 8.500000 -0.473018
vertex 5.000000 8.000000 0.000000
vertex 4.000000 8.000000 0.000000
endloop
endfacet
facet normal -0.687235 0.000000 -0.726436
outer loop
vertex 4.500000 8.500000 -0.473018
vertex 4.000000 8.000000 0.000000
vertex 4.000000 9.000000 0.000000
endloop
endfacet
facet normal 0.687235 0.000000 -0.726436
outer loop
vertex 5.000000 8.000000 0.000000
vertex 4.500000 8.500000 -0.473018
vertex 5.000000 9.000000 0.000000
endloop
endfacet
facet normal 0.000000 0.687235 -0.726436
outer loop
vertex 5.000000 9.000000 0.000000
vertex 4.500000 8.500000 -0.473018
vertex 4.000000 9.000000 0.000000
endloop
endfacet
facet normal -0.687235 0.000000 -0.726436
outer loop
vertex 4.000000 9.000000 0.000000
vertex 4.500000 9.500000 -0.473018
vertex 4.500000 8.500000 -0.473018
endloop
endfacet
facet normal 0.000000 -0.687235 -0.726436
outer loop
vertex 1.500000 9.500000 -0.473018
vertex 1.000000 9.000000 0.000000
vertex 0.500000 9.500000 -0.473018
endloop
endfacet
facet normal 0.000000 0.687235 -0.726436
outer loop
vertex 3.000000 10.000000 0.000000
vertex 3.500000 9.500000 -0.473018
vertex 2.500000 9.500000 -0.473018
endloop
endfacet
facet normal -0.687235 0.000000 -0.726436
outer loop
vertex 0.000000 2.000000 0.000000
vertex 0.500000 2.500000 -0.473018
vertex 0.500000 1.500000 -0.473018
endloop
endfacet
facet normal 0.000000 -0.687235 -0.726436
outer loop
vertex 0.500000 9.500000 -0.473018
vertex 1.000000 9.000000 0.000000
vertex 0.000000 9.000000 0.000000
endloop
endfacet
facet normal -0.687235 0.000000 -0.726436
outer loop
vertex 0.500000 9.500000 -0.473018
vertex 0.000000 9.000000 0.000000
vertex 0.000000 10.000000 0.000000
endloop
endfacet
facet normal 0.687235 0.000000 -0.726436
outer loop
vertex 1.000000 9.000000 0.000000
vertex 0.500000 9.500000 -0.473018
vertex 1.000000 10.000000 0.000000
endloop
endfacet
facet normal 0.000000 0.687235 -0.726436
outer loop
vertex 1.000000 10.000000 0.000000
vertex 0.500000 9.500000 -0.473018
vertex 0.000000 10.000000 0.000000
endloop
endfacet
facet normal 0.000000 0.687235 -0.726436
outer loop
vertex 1.000000 10.000000 0.000000
vertex 1.500000 9.500000 -0.473018
vertex 0.500000 9.500000 -0.473018
endloop
endfacet
facet normal 0.000000 -0.687235 -0.726436
outer loop
vertex 2.500000 9.500000 -0.473018
vertex 2.000000 9.000000 0.000000
vertex 1.500000 9.500000 -0.473018
endloop
endfacet
facet normal 0.000000 -0.687235 -0.726435
outer loop
vertex 1.500000 9.500000 -0.473018
vertex 2.000000 9.000000 0.000000
vertex 1.000000 9.000000 0.000000
endloop
endfacet
facet normal -0.687235 0.000000 -0.726436
outer loop
vertex 1.500000 9.500000 -0.473018
vertex 1.000000 9.000000 0.000000
vertex 1.000000 10.000000 0.000000
endloop
endfacet
facet normal 0.687235 0.000000 -0.726436
outer loop
vertex 2.000000 9.000000 0.000000
vertex 1.500000 9.500000 -0.473018
vertex 2.000000 10.000000 0.000000
endloop
endfacet
facet normal 0.000000 0.687235 -0.726435
outer loop
vertex 2.000000 10.000000 0.000000
vertex 1.500000 9.500000 -0.473018
vertex 1.000000 10.000000 0.000000
endloop
endfacet
facet normal 0.000000 0.687235 -0.726436
outer loop
vertex 2.000000 10.000000 0.000000
vertex 2.500000 9.500000 -0.473018
vertex 1.500000 9.500000 -0.473018
endloop
endfacet
facet normal 0.000000 -0.687235 -0.726436
outer loop
vertex 3.500000 9.500000 -0.473018
vertex 3.000000 9.000000 0.000000
vertex 2.500000 9.500000 -0.473018
endloop
endfacet
facet normal 0.000000 -0.687235 -0.726435
outer loop
vertex 2.500000 9.500000 -0.473018
vertex 3.000000 9.000000 0.000000
vertex 2.000000 9.000000 0.000000
endloop
endfacet
facet normal -0.687235 0.000000 -0.726436
outer loop
vertex 2.500000 9.500000 -0.473018
vertex 2.000000 9.000000 0.000000
vertex 2.000000 10.000000 0.000000
endloop
endfacet
facet normal 0.687235 0.000000 -0.726436
outer loop
vertex 3.000000 9.000000 0.000000
vertex 2.500000 9.500000 -0.473018
vertex 3.000000 10.000000 0.000000
endloop
endfacet
facet normal 0.000000 0.687235 -0.726435
outer loop
vertex 3.000000 10.000000 0.000000
vertex 2.500000 9.500000 -0.473018
vertex 2.000000 10.000000 0.000000
endloop
endfacet
facet normal 0.000000 -0.687235 -0.726435
outer loop
vertex 4.500000 9.500000 -0.473018
vertex 4.000000 9.000000 0.000000
vertex 3.500000 9.500000 -0.473018
endloop
endfacet
facet normal 0.000000 -0.687235 -0.726435
outer loop
vertex 3.500000 9.500000 -0.473018
vertex 4.000000 9.000000 0.000000
vertex 3.000000 9.000000 0.000000
endloop
endfacet
facet normal -0.687235 0.000000 -0.726436
outer loop
vertex 3.500000 9.500000 -0.473018
vertex 3.000000 9.000000 0.000000
vertex 3.000000 10.000000 0.000000
endloop
endfacet
facet normal 0.687235 0.000000 -0.726436
outer loop
vertex 4.000000 9.000000 0.000000
vertex 3.500000 9.500000 -0.473018
vertex 4.000000 10.000000 0.000000
endloop
endfacet
facet normal 0.000000 0.687235 -0.726435
outer loop
vertex 4.000000 10.000000 0.000000
vertex 3.500000 9.500000 -0.473018
vertex 3.000000 10.000000 0.000000
endloop
endfacet
facet normal 0.000000 0.687235 -0.726435
outer loop
vertex 4.000000 10.000000 0.000000
vertex 4.500000 9.500000 -0.473018
vertex 3.500000 9.500000 -0.473018
endloop
endfacet
facet normal 0.000000 -0.687235 -0.726436
outer loop
vertex 4.500000 9.500000 -0.473018
vertex 5.000000 9.000000 0.000000
vertex 4.000000 9.000000 0.000000
endloop
endfacet
facet normal -0.687235 0.000000 -0.726436
outer loop
vertex 4.500000 9.500000 -0.473018
vertex 4.000000 9.000000 0.000000
vertex 4.000000 10.000000 0.000000
endloop
endfacet
facet normal 0.687235 0.000000 -0.726436
outer loop
vertex 5.000000 9.000000 0.000000
vertex 4.500000 9.500000 -0.473018
vertex 5.000000 10.000000 0.000000
endloop
endfacet
facet normal 0.000000 0.687235 -0.726436
outer loop
vertex 5.000000 10.000000 0.000000
vertex 4.500000 9.500000 -0.473018
vertex 4.000000 10.000000 0.000000
endloop
endfacet
facet normal 0.000000 0.687235 -0.726436
outer loop
vertex 1.000000 1.000000 0.000000
vertex 1.500000 0.500000 -0.473018
vertex 0.500000 0.500000 -0.473018
endloop
endfacet
facet normal 0.687235 0.000000 -0.726436
outer loop
vertex 0.500000 2.500000 -0.473018
vertex 1.000000 2.000000 0.000000
vertex 0.500000 1.500000 -0.473018
endloop
endfacet
endsolid Exported from Blender-2.92.0
