solid Exported from Blender-2.92.0
facet normal -0.692413 -0.692413 0.202803
outer loop
vertex -1.000000 -1.000000 0.000000
vertex 0.000000 -1.414214 2.000000
vertex -1.414214 0.000000 2.000000
endloop
endfacet
facet normal 0.000000 0.979219 -0.202803
outer loop
vertex -1.000000 1.000000 0.000000
vertex 0.000000 1.414214 2.000000
vertex 1.000000 1.000000 0.000000
endloop
endfacet
facet normal 0.979220 0.000000 -0.202803
outer loop
vertex 1.000000 1.000000 0.000000
vertex 1.414214 0.000000 2.000000
vertex 1.000000 -1.000000 0.000000
endloop
endfacet
facet normal 0.692413 -0.692413 0.202803
outer loop
vertex 1.000000 -1.000000 0.000000
vertex 1.414214 0.000000 2.000000
vertex 0.000000 -1.414214 2.000000
endloop
endfacet
facet normal -0.692413 -0.692413 -0.202803
outer loop
vertex 0.000000 -1.414214 2.000000
vertex -1.000000 -1.000000 4.000000
vertex -1.414214 0.000000 2.000000
endloop
endfacet
facet normal -0.979220 -0.000000 0.202803
outer loop
vertex -1.414214 0.000000 2.000000
vertex -1.000000 -1.000000 4.000000
vertex -1.000000 1.000000 4.000000
endloop
endfacet
facet normal -0.000000 0.979220 0.202803
outer loop
vertex 0.000000 1.414214 2.000000
vertex -1.000000 1.000000 4.000000
vertex 1.000000 1.000000 4.000000
endloop
endfacet
facet normal 0.979220 0.000000 0.202803
outer loop
vertex 1.414214 0.000000 2.000000
vertex 1.000000 1.000000 4.000000
vertex 1.000000 -1.000000 4.000000
endloop
endfacet
facet normal 0.692413 -0.692413 0.202803
outer loop
vertex 1.000000 -1.000000 4.000000
vertex 1.414214 0.000000 6.000000
vertex 0.000000 -1.414214 6.000000
endloop
endfacet
facet normal -0.979220 -0.000000 -0.202803
outer loop
vertex -1.000000 -1.000000 4.000000
vertex -1.414214 0.000000 6.000000
vertex -1.000000 1.000000 4.000000
endloop
endfacet
facet normal -0.692413 0.692413 0.202803
outer loop
vertex -1.000000 1.000000 4.000000
vertex -1.414214 0.000000 6.000000
vertex 0.000000 1.414214 6.000000
endloop
endfacet
facet normal 0.692413 0.692413 0.202803
outer loop
vertex 1.000000 1.000000 4.000000
vertex 0.000000 1.414214 6.000000
vertex 1.414214 0.000000 6.000000
endloop
endfacet
facet normal 0.692413 -0.692413 -0.202803
outer loop
vertex 1.414214 0.000000 6.000000
vertex 1.000000 -1.000000 8.000000
vertex 0.000000 -1.414214 6.000000
endloop
endfacet
facet normal -0.692413 -0.692413 -0.202803
outer loop
vertex 0.000000 -1.414214 6.000000
vertex -1.000000 -1.000000 8.000000
vertex -1.414214 0.000000 6.000000
endloop
endfacet
facet normal -0.692413 0.692413 -0.202803
outer loop
vertex -1.414214 0.000000 6.000000
vertex -1.000000 1.000000 8.000000
vertex 0.000000 1.414214 6.000000
endloop
endfacet
facet normal -0.000000 0.979219 0.202803
outer loop
vertex 0.000000 1.414214 6.000000
vertex -1.000000 1.000000 8.000000
vertex 1.000000 1.000000 8.000000
endloop
endfacet
facet normal 0.692413 0.692413 0.202803
outer loop
vertex 1.000000 1.000000 8.000000
vertex -0.000000 1.414214 10.000000
vertex 1.414214 0.000000 10.000000
endloop
endfacet
facet normal 0.692413 -0.692413 0.202803
outer loop
vertex 1.000000 -1.000000 8.000000
vertex 1.414214 0.000000 10.000000
vertex 0.000000 -1.414214 10.000000
endloop
endfacet
facet normal -0.979220 -0.000000 -0.202803
outer loop
vertex -1.000000 -1.000000 8.000000
vertex -1.414214 -0.000000 10.000000
vertex -1.000000 1.000000 8.000000
endloop
endfacet
facet normal -0.692413 0.692413 0.202803
outer loop
vertex -1.000000 1.000000 8.000000
vertex -1.414214 -0.000000 10.000000
vertex -0.000000 1.414214 10.000000
endloop
endfacet
facet normal 0.000000 0.979219 0.202803
outer loop
vertex -0.000000 1.414214 10.000000
vertex -1.000000 1.000000 12.000000
vertex 1.000000 1.000000 12.000000
endloop
endfacet
facet normal 0.692413 -0.692413 -0.202803
outer loop
vertex 1.414214 0.000000 10.000000
vertex 1.000000 -1.000000 12.000000
vertex 0.000000 -1.414214 10.000000
endloop
endfacet
facet normal -0.692413 -0.692413 -0.202803
outer loop
vertex 0.000000 -1.414214 10.000000
vertex -1.000000 -1.000000 12.000000
vertex -1.414214 -0.000000 10.000000
endloop
endfacet
facet normal -0.292708 0.878125 -0.378441
outer loop
vertex -1.414214 -0.000000 10.000000
vertex -4.000000 0.000000 12.000000
vertex -1.000000 1.000000 12.000000
endloop
endfacet
facet normal 0.692413 0.692413 -0.202803
outer loop
vertex 1.000000 1.000000 12.000000
vertex 1.414214 0.000000 10.000000
vertex -0.000000 1.414214 10.000000
endloop
endfacet
facet normal 0.000000 -0.979219 0.202803
outer loop
vertex -1.000000 -1.000000 12.000000
vertex 0.000000 -1.414214 10.000000
vertex 1.000000 -1.000000 12.000000
endloop
endfacet
facet normal -0.692413 0.692413 -0.202803
outer loop
vertex -1.000000 1.000000 12.000000
vertex -0.000000 1.414214 10.000000
vertex -1.414214 -0.000000 10.000000
endloop
endfacet
facet normal 0.000000 -0.979220 0.202803
outer loop
vertex -1.000000 -1.000000 8.000000
vertex 0.000000 -1.414214 6.000000
vertex 1.000000 -1.000000 8.000000
endloop
endfacet
facet normal -0.692413 -0.692413 0.202803
outer loop
vertex -1.414214 -0.000000 10.000000
vertex -1.000000 -1.000000 8.000000
vertex 0.000000 -1.414214 10.000000
endloop
endfacet
facet normal 0.692413 0.692413 0.202803
outer loop
vertex 1.414214 0.000000 2.000000
vertex 1.000000 1.000000 0.000000
vertex 0.000000 1.414214 2.000000
endloop
endfacet
facet normal 0.692413 -0.692413 -0.202803
outer loop
vertex 1.000000 -1.000000 4.000000
vertex 0.000000 -1.414214 2.000000
vertex 1.414214 0.000000 2.000000
endloop
endfacet
facet normal 0.000000 -0.979220 -0.202803
outer loop
vertex 0.000000 -1.414214 6.000000
vertex -1.000000 -1.000000 4.000000
vertex 1.000000 -1.000000 4.000000
endloop
endfacet
facet normal -0.692413 -0.692413 0.202803
outer loop
vertex -1.414214 0.000000 6.000000
vertex -1.000000 -1.000000 4.000000
vertex 0.000000 -1.414214 6.000000
endloop
endfacet
facet normal 0.000000 -0.979219 -0.202803
outer loop
vertex 0.000000 -1.414214 2.000000
vertex -1.000000 -1.000000 0.000000
vertex 1.000000 -1.000000 0.000000
endloop
endfacet
facet normal 0.000000 -0.979220 0.202803
outer loop
vertex -1.000000 -1.000000 4.000000
vertex 0.000000 -1.414214 2.000000
vertex 1.000000 -1.000000 4.000000
endloop
endfacet
facet normal -0.979220 -0.000000 0.202803
outer loop
vertex -1.000000 1.000000 8.000000
vertex -1.414214 0.000000 6.000000
vertex -1.000000 -1.000000 8.000000
endloop
endfacet
facet normal -0.692413 0.692413 -0.202803
outer loop
vertex -1.000000 1.000000 4.000000
vertex 0.000000 1.414214 2.000000
vertex -1.414214 0.000000 2.000000
endloop
endfacet
facet normal 0.000000 0.979220 -0.202803
outer loop
vertex 0.000000 1.414214 6.000000
vertex 1.000000 1.000000 4.000000
vertex -1.000000 1.000000 4.000000
endloop
endfacet
facet normal -0.979220 0.000000 -0.202803
outer loop
vertex -1.414214 0.000000 2.000000
vertex -1.000000 1.000000 0.000000
vertex -1.000000 -1.000000 0.000000
endloop
endfacet
facet normal 0.692413 0.692413 -0.202803
outer loop
vertex 1.000000 1.000000 4.000000
vertex 1.414214 0.000000 2.000000
vertex 0.000000 1.414214 2.000000
endloop
endfacet
facet normal 0.979220 0.000000 -0.202803
outer loop
vertex 1.414214 0.000000 6.000000
vertex 1.000000 -1.000000 4.000000
vertex 1.000000 1.000000 4.000000
endloop
endfacet
facet normal -0.692413 0.692413 0.202803
outer loop
vertex 0.000000 1.414214 2.000000
vertex -1.000000 1.000000 0.000000
vertex -1.414214 0.000000 2.000000
endloop
endfacet
facet normal 0.979220 0.000000 -0.202803
outer loop
vertex 1.414214 0.000000 10.000000
vertex 1.000000 -1.000000 8.000000
vertex 1.000000 1.000000 8.000000
endloop
endfacet
facet normal 0.692413 0.692413 -0.202803
outer loop
vertex 1.000000 1.000000 8.000000
vertex 1.414214 0.000000 6.000000
vertex 0.000000 1.414214 6.000000
endloop
endfacet
facet normal 0.979220 0.000000 0.202803
outer loop
vertex 1.000000 -1.000000 8.000000
vertex 1.414214 0.000000 6.000000
vertex 1.000000 1.000000 8.000000
endloop
endfacet
facet normal 0.000000 -0.979219 -0.202803
outer loop
vertex 0.000000 -1.414214 10.000000
vertex -1.000000 -1.000000 8.000000
vertex 1.000000 -1.000000 8.000000
endloop
endfacet
facet normal -0.000000 0.979219 -0.202803
outer loop
vertex -0.000000 1.414214 10.000000
vertex 1.000000 1.000000 8.000000
vertex -1.000000 1.000000 8.000000
endloop
endfacet
facet normal 0.000000 0.000000 1.000000
outer loop
vertex -4.000000 0.000000 12.000000
vertex -1.000000 -1.000000 12.000000
vertex -1.000000 1.000000 12.000000
endloop
endfacet
facet normal 0.292709 -0.878125 -0.378441
outer loop
vertex 4.000000 0.000000 12.000000
vertex 1.000000 -1.000000 12.000000
vertex 1.414214 0.000000 10.000000
endloop
endfacet
facet normal -0.707107 0.000000 0.707107
outer loop
vertex -1.000000 1.000000 12.000000
vertex -1.000000 -1.000000 12.000000
vertex -0.000000 -0.000000 13.000000
endloop
endfacet
facet normal 0.707107 0.000000 0.707107
outer loop
vertex 1.000000 1.000000 12.000000
vertex -0.000000 -0.000000 13.000000
vertex 1.000000 -1.000000 12.000000
endloop
endfacet
facet normal 0.000000 -0.707107 0.707107
outer loop
vertex 1.000000 -1.000000 12.000000
vertex -0.000000 -0.000000 13.000000
vertex -1.000000 -1.000000 12.000000
endloop
endfacet
facet normal 0.000000 0.707107 0.707107
outer loop
vertex -0.000000 -0.000000 13.000000
vertex 1.000000 1.000000 12.000000
vertex -1.000000 1.000000 12.000000
endloop
endfacet
facet normal -0.000000 0.000000 1.000000
outer loop
vertex 1.000000 -1.000000 12.000000
vertex 4.000000 0.000000 12.000000
vertex 1.000000 1.000000 12.000000
endloop
endfacet
facet normal -0.292709 -0.878125 -0.378441
outer loop
vertex -1.000000 -1.000000 12.000000
vertex -4.000000 0.000000 12.000000
vertex -1.414214 -0.000000 10.000000
endloop
endfacet
facet normal 0.292708 0.878125 -0.378441
outer loop
vertex 4.000000 0.000000 12.000000
vertex 1.414214 0.000000 10.000000
vertex 1.000000 1.000000 12.000000
endloop
endfacet
endsolid Exported from Blender-2.92.0
